<?xml version="1.0" encoding="utf-8"?>
<svg xmlns="http://www.w3.org/2000/svg" style="margin: auto; background: none; display: block; shape-rendering: auto;" width="600" height="250" preserveAspectRatio="xMidYMid">
<style type="text/css">
  text {
    text-anchor: middle; font-size: 100px; opacity: 0;
  }
</style>
<g transform="translate(300,125)">
  <g transform="translate(0,0)"><g class="path" style="transform-origin: -220.7px -1.80399px; animation: breath-8e2a092e-418d-4772-b95a-75cafd9552ab 1s linear -0.616s infinite normal forwards running; transform: scale(0.91);"><path d="M21-13.60L21-13.60L21-13.60Q21 1.40 30.70 6.20L30.70 6.20L30.70 6.20Q33.10 6.50 37.05 6.50L37.05 6.50L37.05 6.50Q41 6.50 45.40 5L45.40 5L45.40 5Q49.80 3.50 52.20 1.30L52.20 1.30L52.20 1.30Q57.30-3.40 58.60-6.80L58.60-6.80L59.10-8.30L61.10-7.50L61.10-7.50Q60.40-5.20 58.40-2.20L58.40-2.20L58.40-2.20Q56.40 0.80 53.85 2.90L53.85 2.90L53.85 2.90Q51.30 5 46.45 6.75L46.45 6.75L46.45 6.75Q41.60 8.50 35.70 8.50L35.70 8.50L35.70 8.50Q23.10 8.50 16.15 1.20L16.15 1.20L16.15 1.20Q9.20-6.10 9.20-19.40L9.20-19.40L9.20-19.40Q9.20-37.50 20.90-49.20L20.90-49.20L20.90-49.20Q32.60-60.90 51.60-60.90L51.60-60.90L51.60-60.90Q60.40-60.90 64.30-57.75L64.30-57.75L64.30-57.75Q68.20-54.60 68.20-47.90L68.20-47.90L68.20-47.90Q68.20-43.40 63.80-36.80L63.80-36.80L63.80-36.80Q59.80-30.40 59.80-26.80L59.80-26.80L57.60-26.80L57.60-26.80Q57.60-28.80 58.40-31.10L58.40-31.10L58.40-31.10Q59.20-33.40 59.80-34.40L59.80-34.40L59.80-34.40Q60.40-35.40 62-38L62-38L62-38Q65.90-43.90 65.90-47.70L65.90-47.70L65.90-47.70Q65.90-55.70 59.30-57.80L59.30-57.80L59.30-57.80Q56.20-58.80 52.80-58.80L52.80-58.80L52.80-58.80Q49.40-58.80 45.60-58.40L45.60-58.40L45.60-58.40Q42.10-57.30 38.95-55.55L38.95-55.55L38.95-55.55Q35.80-53.80 32.40-50.25L32.40-50.25L32.40-50.25Q29-46.70 26.60-42L26.60-42L26.60-42Q24.20-37.30 22.60-29.95L22.60-29.95L22.60-29.95Q21-22.60 21-13.60" fill="#00a950" stroke="none" stroke-width="none" transform="translate(-259.3999938964844,24.39600405883788)" style="fill: rgb(1, 76, 134);"></path></g><g class="path" style="transform-origin: -167.5px 5.39602px; animation: breath-8e2a092e-418d-4772-b95a-75cafd9552ab 1s linear -0.572s infinite normal forwards running; transform: scale(0.91);"><path d="M105.60 0.90L105.60 0.90L105.60 0.90Q96.80 0.90 96-6.80L96-6.80L96-6.80Q91.60 0.90 84.90 0.90L84.90 0.90L84.90 0.90Q78.20 0.90 74.25-3.15L74.25-3.15L74.25-3.15Q70.30-7.20 70.30-14.50L70.30-14.50L70.30-14.50Q70.30-25.90 75.90-32.40L75.90-32.40L75.90-32.40Q81.50-38.90 90.40-38.90L90.40-38.90L90.40-38.90Q97.70-38.90 100.10-32L100.10-32L100.10-32Q100.60-35 101.20-38L101.20-38L101.20-38Q108.60-38 112.20-38.60L112.20-38.60L113.50-38.90L106.60-1.10L106.60-1.10Q109.60-1.40 111.60-3.90L111.60-3.90L113.10-2.70L113.10-2.70Q110.10 0.90 105.60 0.90zM81.60-9.40L81.60-9.40Q81.60-4.90 82.75-3.15L82.75-3.15L82.75-3.15Q83.90-1.40 86.30-1.40L86.30-1.40L86.30-1.40Q88.70-1.40 91.20-4L91.20-4L91.20-4Q94.50-7.40 96.50-12.60L96.50-12.60L96.50-12.60Q96.80-13.90 97.65-18.85L97.65-18.85L97.65-18.85Q98.50-23.80 99.10-27L99.10-27L99.10-27Q98.80-30.80 97-33.60L97-33.60L97-33.60Q95.20-36.40 92.50-36.40L92.50-36.40L92.50-36.40Q87.60-36.40 84.60-27.65L84.60-27.65L84.60-27.65Q81.60-18.90 81.60-9.40L81.60-9.40" fill="#00a950" stroke="none" stroke-width="none" transform="translate(-259.3999938964844,24.39600405883788)" style="fill: rgb(0, 169, 80);"></path></g><g class="path" style="transform-origin: -126.25px -7.554px; animation: breath-8e2a092e-418d-4772-b95a-75cafd9552ab 1s linear -0.528s infinite normal forwards running; transform: scale(0.91);"><path d="M137-3.60L137-3.60L137-3.60Q135.70-1.90 133.45-0.50L133.45-0.50L133.45-0.50Q131.20 0.90 127.60 0.90L127.60 0.90L127.60 0.90Q124.00 0.90 121.50-1.40L121.50-1.40L121.50-1.40Q119.00-3.70 119.00-7.90L119.00-7.90L119.00-7.90Q119.00-8.70 119.20-10.50L119.20-10.50L125.70-46.50L125.70-46.50Q127.50-56.40 130.65-60.60L130.65-60.60L130.65-60.60Q133.80-64.80 139-64.80L139-64.80L139-64.80Q142.60-64.80 144.95-62.10L144.95-62.10L144.95-62.10Q147.30-59.40 147.30-53.90L147.30-53.90L147.30-53.90Q147.30-48.40 143.05-38.20L143.05-38.20L143.05-38.20Q138.80-28 138.80-23.30L138.80-23.30L137-23.30L137-23.30Q137-28.60 141.20-38.45L141.20-38.45L141.20-38.45Q145.40-48.30 145.40-54.20L145.40-54.20L145.40-54.20Q145.40-57.80 143.75-60.40L143.75-60.40L143.75-60.40Q142.10-63 139.70-63L139.70-63L139.70-63Q139.60-60.40 136.25-39.65L136.25-39.65L136.25-39.65Q132.90-18.90 129.60-1.10L129.60-1.10L129.60-1.10Q132.40-1.10 134.80-4L134.80-4L134.80-4Q137.20-6.90 138.20-9.80L138.20-9.80L139.30-12.80L141.10-12L141.10-12Q140.80-10.60 139.55-7.95L139.55-7.95L139.55-7.95Q138.30-5.30 137-3.60" fill="#00a950" stroke="none" stroke-width="none" transform="translate(-259.3999938964844,24.39600405883788)" style="fill: rgb(107, 192, 72);"></path></g><g class="path" style="transform-origin: -94.7999px 5.396px; animation: breath-8e2a092e-418d-4772-b95a-75cafd9552ab 1s linear -0.484s infinite normal forwards running; transform: scale(0.91);"><path d="M170.60-20.90L170.60-20.90L170.60-20.90Q168.50-23 168.50-26L168.50-26L168.50-26Q168.50-29 170.60-31.15L170.60-31.15L170.60-31.15Q172.70-33.30 175.70-33.30L175.70-33.30L175.70-33.30Q176.60-33.30 178.00-32.90L178.00-32.90L178.00-32.90Q176.10-36.40 170.90-36.40L170.90-36.40L170.90-36.40Q165.70-36.40 161.70-29.80L161.70-29.80L161.70-29.80Q157.70-23.20 157.70-10.20L157.70-10.20L157.70-10.20Q157.70-5.70 159.75-3.55L159.75-3.55L159.75-3.55Q161.80-1.40 164.90-1.40L164.90-1.40L164.90-1.40Q168.00-1.40 170.55-2.60L170.55-2.60L170.55-2.60Q173.10-3.80 174.60-5.45L174.60-5.45L174.60-5.45Q176.10-7.10 177.20-8.90L177.20-8.90L177.20-8.90Q179.20-12.20 179.20-13.10L179.20-13.10L181.00-12.30L181.00-12.30Q180.70-10.70 179.20-8.05L179.20-8.05L179.20-8.05Q177.70-5.40 175.90-3.70L175.90-3.70L175.90-3.70Q174.10-2 170.60-0.55L170.60-0.55L170.60-0.55Q167.10 0.90 162.80 0.90L162.80 0.90L162.80 0.90Q154.70 0.90 150.55-2.95L150.55-2.95L150.55-2.95Q146.40-6.80 146.40-13.50L146.40-13.50L146.40-13.50Q146.40-25.40 152.35-32.15L152.35-32.15L152.35-32.15Q158.30-38.90 168.50-38.90L168.50-38.90L168.50-38.90Q175.40-38.90 179.10-35.40L179.10-35.40L179.10-35.40Q182.80-31.90 182.80-26.20L182.80-26.20L182.80-26.20Q182.80-22.60 180.65-20.70L180.65-20.70L180.65-20.70Q178.50-18.80 175.60-18.80L175.60-18.80L175.60-18.80Q172.70-18.80 170.60-20.90" fill="#00a950" stroke="none" stroke-width="none" transform="translate(-259.3999938964844,24.39600405883788)" style="fill: rgb(250, 208, 0);"></path></g><g class="path" style="transform-origin: -50.3499px 5.396px; animation: breath-8e2a092e-418d-4772-b95a-75cafd9552ab 1s linear -0.44s infinite normal forwards running; transform: scale(0.91);"><path d="M193.20-36.90L193.20-36.90L193.20-36.90Q190.80-36.90 188.20-34.10L188.20-34.10L186.70-35.30L186.70-35.30Q187.40-36.70 189.80-37.80L189.80-37.80L189.80-37.80Q192.20-38.90 195.10-38.90L195.10-38.90L195.10-38.90Q204.20-38.90 204.20-30.70L204.20-30.70L204.20-30.70Q204.20-27.20 202.40-18.20L202.40-18.20L202.40-18.20Q200.60-9.20 200.60-6.40L200.60-6.40L200.60-6.40Q200.60-2.10 204.70-2.10L204.70-2.10L204.70-2.10Q207.60-2.10 210.35-5.50L210.35-5.50L210.35-5.50Q213.10-8.90 215.10-14.90L215.10-14.90L219.30-38L219.30-38Q226.70-38 230.10-38.60L230.10-38.60L231.40-38.90L224.70-1.10L224.70-1.10Q227.70-1.40 229.70-3.90L229.70-3.90L231.20-2.70L231.20-2.70Q228.20 0.90 223.70 0.90L223.70 0.90L223.70 0.90Q219.20 0.90 216.70-1.30L216.70-1.30L216.70-1.30Q214.20-3.50 214.10-7.50L214.10-7.50L214.10-7.50Q209.90 0.90 201.70 0.90L201.70 0.90L201.70 0.90Q195.80 0.90 192.50-2.45L192.50-2.45L192.50-2.45Q189.20-5.80 189.20-11.70L189.20-11.70L189.20-11.70Q189.20-14.80 191.10-23.65L191.10-23.65L191.10-23.65Q193.00-32.50 193.20-36.90" fill="#00a950" stroke="none" stroke-width="none" transform="translate(-259.3999938964844,24.39600405883788)" style="fill: rgb(1, 76, 134);"></path></g><g class="path" style="transform-origin: -8.05001px -7.554px; animation: breath-8e2a092e-418d-4772-b95a-75cafd9552ab 1s linear -0.396s infinite normal forwards running; transform: scale(0.91);"><path d="M255.20-3.60L255.20-3.60L255.20-3.60Q253.90-1.90 251.65-0.50L251.65-0.50L251.65-0.50Q249.40 0.90 245.80 0.90L245.80 0.90L245.80 0.90Q242.20 0.90 239.70-1.40L239.70-1.40L239.70-1.40Q237.20-3.70 237.20-7.90L237.20-7.90L237.20-7.90Q237.20-8.70 237.40-10.50L237.40-10.50L243.90-46.50L243.90-46.50Q245.70-56.40 248.85-60.60L248.85-60.60L248.85-60.60Q252.00-64.80 257.20-64.80L257.20-64.80L257.20-64.80Q260.80-64.80 263.15-62.10L263.15-62.10L263.15-62.10Q265.50-59.40 265.50-53.90L265.50-53.90L265.50-53.90Q265.50-48.40 261.25-38.20L261.25-38.20L261.25-38.20Q257-28 257-23.30L257-23.30L255.20-23.30L255.20-23.30Q255.20-28.60 259.40-38.45L259.40-38.45L259.40-38.45Q263.60-48.30 263.60-54.20L263.60-54.20L263.60-54.20Q263.60-57.80 261.95-60.40L261.95-60.40L261.95-60.40Q260.30-63 257.90-63L257.90-63L257.90-63Q257.80-60.40 254.45-39.65L254.45-39.65L254.45-39.65Q251.10-18.90 247.80-1.10L247.80-1.10L247.80-1.10Q250.60-1.10 253.00-4L253.00-4L253.00-4Q255.40-6.90 256.40-9.80L256.40-9.80L257.50-12.80L259.30-12L259.30-12Q259-10.60 257.75-7.95L257.75-7.95L257.75-7.95Q256.50-5.30 255.20-3.60" fill="#00a950" stroke="none" stroke-width="none" transform="translate(-259.3999938964844,24.39600405883788)" style="fill: rgb(0, 169, 80);"></path></g><g class="path" style="transform-origin: 26.9px 5.39601px; animation: breath-8e2a092e-418d-4772-b95a-75cafd9552ab 1s linear -0.352s infinite normal forwards running; transform: scale(0.91);"><path d="M300 0.90L300 0.90L300 0.90Q291.20 0.90 290.40-6.80L290.40-6.80L290.40-6.80Q286 0.90 279.30 0.90L279.30 0.90L279.30 0.90Q272.60 0.90 268.65-3.15L268.65-3.15L268.65-3.15Q264.70-7.20 264.70-14.50L264.70-14.50L264.70-14.50Q264.70-25.90 270.30-32.40L270.30-32.40L270.30-32.40Q275.90-38.90 284.80-38.90L284.80-38.90L284.80-38.90Q292.10-38.90 294.50-32L294.50-32L294.50-32Q295-35 295.60-38L295.60-38L295.60-38Q303-38 306.60-38.60L306.60-38.60L307.90-38.90L301-1.10L301-1.10Q304-1.40 306-3.90L306-3.90L307.50-2.70L307.50-2.70Q304.50 0.90 300 0.90zM276-9.40L276-9.40Q276-4.90 277.15-3.15L277.15-3.15L277.15-3.15Q278.30-1.40 280.70-1.40L280.70-1.40L280.70-1.40Q283.10-1.40 285.60-4L285.60-4L285.60-4Q288.90-7.40 290.90-12.60L290.90-12.60L290.90-12.60Q291.20-13.90 292.05-18.85L292.05-18.85L292.05-18.85Q292.90-23.80 293.50-27L293.50-27L293.50-27Q293.20-30.80 291.40-33.60L291.40-33.60L291.40-33.60Q289.60-36.40 286.90-36.40L286.90-36.40L286.90-36.40Q282-36.40 279-27.65L279-27.65L279-27.65Q276-18.90 276-9.40L276-9.40" fill="#00a950" stroke="none" stroke-width="none" transform="translate(-259.3999938964844,24.39600405883788)" style="fill: rgb(107, 192, 72);"></path></g><g class="path" style="transform-origin: 69.4px -2.004px; animation: breath-8e2a092e-418d-4772-b95a-75cafd9552ab 1s linear -0.308s infinite normal forwards running; transform: scale(0.91);"><path d="M314.20-38L319.30-38L322.00-52.80L322.00-52.80Q329.40-52.80 333.00-53.40L333.00-53.40L334.30-53.70L334.30-53.70Q332.90-46.70 331.20-38L331.20-38L343.60-38L343.40-36.20L330.90-36.20L330.90-36.20Q325.90-10.40 325.90-5.10L325.90-5.10L325.90-5.10Q325.90-1.90 329.30-1.90L329.30-1.90L329.30-1.90Q332.70-1.90 335.50-6.20L335.50-6.20L335.50-6.20Q338.30-10.50 339.50-15.50L339.50-15.50L341.30-14.90L341.30-14.90Q337.60 0.90 326.00 0.90L326.00 0.90L326.00 0.90Q321.20 0.90 318.00-1.75L318.00-1.75L318.00-1.75Q314.80-4.40 314.80-9.15L314.80-9.15L314.80-9.15Q314.80-13.90 318.90-36.20L318.90-36.20L314.00-36.20L314.20-38" fill="#00a950" stroke="none" stroke-width="none" transform="translate(-259.3999938964844,24.39600405883788)" style="fill: rgb(250, 208, 0);"></path></g><g class="path" style="transform-origin: 96.05px 5.396px; animation: breath-8e2a092e-418d-4772-b95a-75cafd9552ab 1s linear -0.264s infinite normal forwards running; transform: scale(0.91);"><path d="M363.80-2.70L363.80-2.70Q360.80 0.90 356.30 0.90L356.30 0.90L356.30 0.90Q351.80 0.90 349.25-1.40L349.25-1.40L349.25-1.40Q346.70-3.70 346.70-7.40L346.70-7.40L346.70-7.40Q346.70-8.70 348.30-18.30L348.30-18.30L351.60-36.20L347.40-36.20L347.60-38L351.90-38L351.90-38Q359.30-38 362.80-38.60L362.80-38.60L364.20-38.90L357.30-1.10L357.30-1.10Q360.30-1.40 362.30-3.90L362.30-3.90L363.80-2.70" fill="#00a950" stroke="none" stroke-width="none" transform="translate(-259.3999938964844,24.39600405883788)" style="fill: rgb(1, 76, 134);"></path></g><g class="path" style="transform-origin: 100.75px -29.254px; animation: breath-8e2a092e-418d-4772-b95a-75cafd9552ab 1s linear -0.22s infinite normal forwards running; transform: scale(0.91);"><path d="M355.00-48.50L355.00-48.50L355.00-48.50Q352.90-50.60 352.90-53.60L352.90-53.60L352.90-53.60Q352.90-56.60 355.00-58.75L355.00-58.75L355.00-58.75Q357.10-60.90 360.10-60.90L360.10-60.90L360.10-60.90Q363.10-60.90 365.25-58.75L365.25-58.75L365.25-58.75Q367.40-56.60 367.40-53.60L367.40-53.60L367.40-53.60Q367.40-50.60 365.25-48.50L365.25-48.50L365.25-48.50Q363.10-46.40 360.10-46.40L360.10-46.40L360.10-46.40Q357.10-46.40 355.00-48.50" fill="#00a950" stroke="none" stroke-width="none" transform="translate(-259.3999938964844,24.39600405883788)" style="fill: rgb(0, 169, 80);"></path></g><g class="path" style="transform-origin: 132.85px 5.39603px; animation: breath-8e2a092e-418d-4772-b95a-75cafd9552ab 1s linear -0.176s infinite normal forwards running; transform: scale(0.91);"><path d="M408.20-1.10L408.20-1.10L408.20-1.10Q410.60-1.10 413.20-3.90L413.20-3.90L414.70-2.70L414.70-2.70Q414-1.30 411.60-0.20L411.60-0.20L411.60-0.20Q409.20 0.90 406.30 0.90L406.30 0.90L406.30 0.90Q397.20 0.90 397.20-7.30L397.20-7.30L397.20-7.30Q397.20-10.80 399-19.80L399-19.80L399-19.80Q400.80-28.80 400.80-31.60L400.80-31.60L400.80-31.60Q400.80-35.90 396.70-35.90L396.70-35.90L396.70-35.90Q393.40-35.90 390.35-31.60L390.35-31.60L390.35-31.60Q387.30-27.30 385.30-19.80L385.30-19.80L381.90-1.10L381.90-1.10Q385-1.40 387-3.90L387-3.90L388.50-2.70L388.50-2.70Q385.50 0.90 381 0.90L381 0.90L381 0.90Q376.50 0.90 373.95-1.40L373.95-1.40L373.95-1.40Q371.40-3.70 371.40-7.40L371.40-7.40L371.40-7.40Q371.40-8.80 373-18.40L373-18.40L376.30-36.90L376.30-36.90Q373.30-36.60 371.30-34.10L371.30-34.10L369.80-35.30L369.80-35.30Q372.80-38.90 377.35-38.90L377.35-38.90L377.35-38.90Q381.90-38.90 384.40-36.60L384.40-36.60L384.40-36.60Q386.90-34.30 386.90-30.10L386.90-30.10L386.90-29.50L386.90-29.50Q391-38.90 399.70-38.90L399.70-38.90L399.70-38.90Q405.60-38.90 408.90-35.55L408.90-35.55L408.90-35.55Q412.20-32.20 412.20-26.30L412.20-26.30L412.20-26.30Q412.20-23.20 410.30-14.35L410.30-14.35L410.30-14.35Q408.40-5.50 408.20-1.10" fill="#00a950" stroke="none" stroke-width="none" transform="translate(-259.3999938964844,24.39600405883788)" style="fill: rgb(107, 192, 72);"></path></g><g class="path" style="transform-origin: 180.2px 14.146px; animation: breath-8e2a092e-418d-4772-b95a-75cafd9552ab 1s linear -0.132s infinite normal forwards running; transform: scale(0.91);"><path d="M452.30 10.90L452.30 10.90L452.30 10.90Q455.90 10.90 458.50 8.10L458.50 8.10L459.90 9.30L459.90 9.30Q457.50 12.70 452.30 12.70L452.30 12.70L452.30 12.70Q450.10 12.70 447.80 12.20L447.80 12.20L447.80 12.20Q441 18.40 430.40 18.40L430.40 18.40L430.40 18.40Q424.10 18.40 420.65 16.25L420.65 16.25L420.65 16.25Q417.20 14.10 417.20 10.65L417.20 10.65L417.20 10.65Q417.20 7.20 419.35 5.15L419.35 5.15L419.35 5.15Q421.50 3.10 427 3.10L427 3.10L427 3.10Q432.50 3.10 441.50 7.60L441.50 7.60L444.60-9L444.60-9Q440.10-0.70 433-0.70L433-0.70L433-0.70Q419.40-0.70 419.40-14.10L419.40-14.10L419.40-14.10Q419.40-25.30 425.05-32.10L425.05-32.10L425.05-32.10Q430.70-38.90 439.50-38.90L439.50-38.90L439.50-38.90Q444.60-38.90 447.40-35.80L447.40-35.80L447.40-35.80Q448.20-34.90 449-33.10L449-33.10L449.90-38L449.90-38Q457.30-38 460.70-38.60L460.70-38.60L462-38.90L455.40-2L455.40-2Q453.90 5.80 449.40 10.60L449.40 10.60L449.40 10.60Q450.70 10.90 452.30 10.90zM430.70-11L430.70-11Q430.70-6.40 431.60-4.85L431.60-4.85L431.60-4.85Q432.50-3.30 435-3.30L435-3.30L435-3.30Q437.50-3.30 440.10-6L440.10-6L440.10-6Q442.70-8.70 443.85-11.05L443.85-11.05L443.85-11.05Q445-13.40 445.80-15.60L445.80-15.60L447.90-27.10L447.90-27.80L447.90-27.80Q447.90-37 439.50-37L439.50-37L439.50-37Q436.30-37 433.50-28.30L433.50-28.30L433.50-28.30Q430.70-19.60 430.70-11L430.70-11zM430 16.40L430 16.40L430 16.40Q438 16.40 440.80 9.50L440.80 9.50L439.40 8.80L439.40 8.80Q438.20 8.20 437.95 8.05L437.95 8.05L437.95 8.05Q437.70 7.90 436.60 7.40L436.60 7.40L436.60 7.40Q435.50 6.90 435 6.75L435 6.75L435 6.75Q434.50 6.60 433.45 6.20L433.45 6.20L433.45 6.20Q432.40 5.80 431.70 5.65L431.70 5.65L431.70 5.65Q431 5.50 430.10 5.30L430.10 5.30L430.10 5.30Q428.60 5 425.70 5L425.70 5L425.70 5Q422.80 5 421.05 6.40L421.05 6.40L421.05 6.40Q419.30 7.80 419.30 10.50L419.30 10.50L419.30 10.50Q419.30 13.20 422.20 14.80L422.20 14.80L422.20 14.80Q425.10 16.40 430 16.40" fill="#00a950" stroke="none" stroke-width="none" transform="translate(-259.3999938964844,24.39600405883788)" style="fill: rgb(250, 208, 0);"></path></g><g class="path" style="transform-origin: 213.95px 17.946px; animation: breath-8e2a092e-418d-4772-b95a-75cafd9552ab 1s linear -0.088s infinite normal forwards running; transform: scale(0.91);"><path d="M468.20-1.30L468.20-1.30L468.20-1.30Q466.10-3.40 466.10-6.40L466.10-6.40L466.10-6.40Q466.10-9.40 468.20-11.55L468.20-11.55L468.20-11.55Q470.30-13.70 473.30-13.70L473.30-13.70L473.30-13.70Q476.30-13.70 478.45-11.55L478.45-11.55L478.45-11.55Q480.60-9.40 480.60-6.40L480.60-6.40L480.60-6.40Q480.60-3.40 478.45-1.30L478.45-1.30L478.45-1.30Q476.30 0.80 473.30 0.80L473.30 0.80L473.30 0.80Q470.30 0.80 468.20-1.30" fill="#00a950" stroke="none" stroke-width="none" transform="translate(-259.3999938964844,24.39600405883788)" style="fill: rgb(1, 76, 134);"></path></g><g class="path" style="transform-origin: 237.65px 17.946px; animation: breath-8e2a092e-418d-4772-b95a-75cafd9552ab 1s linear -0.044s infinite normal forwards running; transform: scale(0.91);"><path d="M491.90-1.30L491.90-1.30L491.90-1.30Q489.80-3.40 489.80-6.40L489.80-6.40L489.80-6.40Q489.80-9.40 491.90-11.55L491.90-11.55L491.90-11.55Q494-13.70 497-13.70L497-13.70L497-13.70Q500-13.70 502.15-11.55L502.15-11.55L502.15-11.55Q504.30-9.40 504.30-6.40L504.30-6.40L504.30-6.40Q504.30-3.40 502.15-1.30L502.15-1.30L502.15-1.30Q500 0.80 497 0.80L497 0.80L497 0.80Q494 0.80 491.90-1.30" fill="#00a950" stroke="none" stroke-width="none" transform="translate(-259.3999938964844,24.39600405883788)" style="fill: rgb(0, 169, 80);"></path></g><g class="path" style="transform-origin: 261.35px 17.946px; animation: breath-8e2a092e-418d-4772-b95a-75cafd9552ab 1s linear 0s infinite normal forwards running; transform: scale(0.91);"><path d="M515.60-1.30L515.60-1.30L515.60-1.30Q513.50-3.40 513.50-6.40L513.50-6.40L513.50-6.40Q513.50-9.40 515.60-11.55L515.60-11.55L515.60-11.55Q517.70-13.70 520.70-13.70L520.70-13.70L520.70-13.70Q523.70-13.70 525.85-11.55L525.85-11.55L525.85-11.55Q528-9.40 528-6.40L528-6.40L528-6.40Q528-3.40 525.85-1.30L525.85-1.30L525.85-1.30Q523.70 0.80 520.70 0.80L520.70 0.80L520.70 0.80Q517.70 0.80 515.60-1.30" fill="#00a950" stroke="none" stroke-width="none" transform="translate(-259.3999938964844,24.39600405883788)" style="fill: rgb(107, 192, 72);"></path></g></g>
</g>
<style id="breath-8e2a092e-418d-4772-b95a-75cafd9552ab" data-anikit="">@keyframes breath-8e2a092e-418d-4772-b95a-75cafd9552ab
{
  0% {
    animation-timing-function: cubic-bezier(0.9647,0.2413,-0.0705,0.7911);
    transform: scale(0.9099999999999999);
  }
  51% {
    animation-timing-function: cubic-bezier(0.9226,0.2631,-0.0308,0.7628);
    transform: scale(1.02994);
  }
  100% {
    transform: scale(0.9099999999999999);
  }
}</style><style id="breath-8e2a092e-418d-4772-b95a-75cafd9552ab" data-anikit="">@keyframes breath-8e2a092e-418d-4772-b95a-75cafd9552ab
{
  0% {
    animation-timing-function: cubic-bezier(0.9647,0.2413,-0.0705,0.7911);
    transform: scale(0.9099999999999999);
  }
  51% {
    animation-timing-function: cubic-bezier(0.9226,0.2631,-0.0308,0.7628);
    transform: scale(1.02994);
  }
  100% {
    transform: scale(0.9099999999999999);
  }
}</style></svg>